Coordinates
version=1
nRows=8
nColumns=40
inDegrees=yes

Units are S.I. units (second, meters, Newtons, ...)
Angles are in degrees.

endheader
time	pelvis_tilt	pelvis_list	pelvis_rotation	pelvis_tx	pelvis_ty	pelvis_tz	hip_flexion_r	hip_adduction_r	hip_rotation_r	knee_angle_r	knee_angle_r_beta	ankle_angle_r	subtalar_angle_r	mtp_angle_r	hip_flexion_l	hip_adduction_l	hip_rotation_l	knee_angle_l	knee_angle_l_beta	ankle_angle_l	subtalar_angle_l	mtp_angle_l	lumbar_extension	lumbar_bending	lumbar_rotation	arm_flex_r	arm_add_r	arm_rot_r	elbow_flex_r	pro_sup_r	wrist_flex_r	wrist_dev_r	arm_flex_l	arm_add_l	arm_rot_l	elbow_flex_l	pro_sup_l	wrist_flex_l	wrist_dev_l
      0.65000000	     -1.10014889	      2.41514120	     -3.72783129	      0.95877933	      0.86229459	     -0.41623893	      6.68053190	     -0.53657094	     -0.82142123	    -48.04338105	     -0.83851518	     10.54691714	     -6.39155148	    -11.99124282	     49.60891624	      1.85284747	      7.47835185	    -96.84855886	     -1.69032623	     -7.01134135	     19.23006451	     23.75987976	    -11.72685788	     -0.45785921	      7.05154285	     -2.06871367	    -17.19357830	      5.55545818	     98.59203620	     89.95437384	      0.00000000	      0.00000000	    -31.68820578	     24.33581526	      6.37958424	     78.57017885	     89.95437384	      0.00000000	      0.00000000
      0.66000000	     -0.68892132	      3.29734418	     -3.58115917	      1.00554261	      0.86817317	     -0.41692320	      2.63389791	     -2.19385874	     -1.37693451	    -46.52878824	     -0.81208055	      6.03786420	     -5.47701767	    -11.04013284	     51.57039604	      0.88006423	      8.09151266	    -92.45968137	     -1.61372587	     -7.27984837	     19.24363811	     24.05016861	    -11.76437008	     -1.68007771	      7.97923503	     -1.20585834	    -16.55679490	      6.24609052	    101.68554499	     89.95437384	      0.00000000	      0.00000000	    -33.82543746	     25.04846335	      8.31868420	     78.59577403	     89.95437384	      0.00000000	      0.00000000
      0.67000000	     -0.26341721	      4.06236959	     -3.24281993	      1.05272447	      0.87437414	     -0.41785988	     -1.32893934	     -3.74160310	     -2.16530935	    -44.67992092	     -0.77981173	      0.33588336	     -4.16118923	     -9.03674302	     52.78678664	     -0.09586461	      8.59126951	    -87.28602106	     -1.52342846	     -7.27488727	     19.23383122	     25.59644415	    -11.79578950	     -2.77238866	      8.67812743	     -0.56916456	    -16.02059689	      7.02686319	    104.85156871	     89.95437384	      0.00000000	      0.00000000	    -35.91561879	     25.76871431	     10.01503478	     79.00424130	     89.95437384	      0.00000000	      0.00000000
      0.68000000	     -0.12494301	      4.49831001	     -2.89930478	      1.10003594	      0.88021778	     -0.41878094	     -4.68218111	     -4.89499783	     -3.01068715	    -42.63349411	     -0.74409484	     -7.18849569	     -3.18721968	     -7.06369767	     53.63425264	     -0.71452238	      8.86873693	    -81.34896596	     -1.41980730	     -8.18506732	     19.19189438	     25.52660886	    -11.47529660	     -3.46770661	      9.32374439	     -0.11676072	    -15.67758709	      7.99378142	    108.07626581	     89.95437384	      0.00000000	      0.00000000	    -37.83515717	     26.42854129	     11.34270786	     79.39643652	     89.95437384	      0.00000000	      0.00000000
      0.69000000	     -0.19312302	      4.41282242	     -2.81728519	      1.14741227	      0.88562541	     -0.41895194	     -7.66520041	     -5.17372728	     -2.92234642	    -40.12846099	     -0.70037377	    -15.10633241	     -2.19429910	     -1.88411078	     53.98617776	     -0.63450920	      8.91940944	    -74.86149174	     -1.30657951	     -9.37545539	     19.08869063	     25.62267979	    -10.90000465	     -3.64228194	     10.15866270	      0.12144764	    -15.43750750	      9.05861966	    111.23970814	     89.95437384	      0.00000000	      0.00000000	    -39.60021538	     26.88468655	     12.54678759	     79.80248450	     89.95437384	      0.00000000	      0.00000000
      0.70000000	     -0.55540190	      4.04286072	     -2.66340083	      1.19467311	      0.89000165	     -0.41916127	     -9.95308110	     -4.98901542	     -2.22327868	    -38.46380162	     -0.67131998	    -17.97985497	      1.25726633	     14.67066804	     54.08487233	     -0.45397670	      8.59972890	    -67.87565587	     -1.18465368	    -11.58580355	     18.94199225	     25.28786646	     -9.97888206	     -3.50530304	     11.02408455	     -0.05133739	    -15.33461907	     10.04136035	    114.39266745	     89.95437384	      0.00000000	      0.00000000	    -41.03792340	     27.34449574	     13.38635303	     80.24947906	     89.95437384	      0.00000000	      0.00000000
      0.71000000	     -1.22942258	      3.45330283	     -2.68688170	      1.24196190	      0.89281751	     -0.41917354	    -11.60033436	     -4.46469885	     -1.09709377	    -37.54371241	     -0.65526140	    -20.02231395	      1.43611052	     14.90288728	     54.09761748	      0.15783192	      8.45585720	    -60.72157525	     -1.05979142	    -14.27284779	     18.79360404	     25.32063935	     -8.66209299	     -3.13248408	     12.04019635	     -0.62356619	    -15.27661615	     10.88494771	    117.34564359	     89.95437384	      0.00000000	      0.00000000	    -42.29150652	     27.72299991	     14.06210915	     80.87881200	     89.95437384	      0.00000000	      0.00000000
      0.72000000	     -1.75416889	      2.91919469	     -2.75404132	      1.28959960	      0.89493646	     -0.41942104	    -12.85512644	     -4.12259724	     -0.55566886	    -37.37596404	     -0.65233363	    -21.37681654	     -0.40553545	     15.27215567	     53.46993696	      0.78370622	      8.68813413	    -53.46032788	     -0.93305874	    -17.07579342	     18.69907631	     25.30994431	     -7.44500523	     -2.82280640	     13.02475205	     -1.53928032	    -15.32638545	     11.58105599	    120.01089669	     89.95437384	      0.00000000	      0.00000000	    -43.31653450	     28.09770093	     14.59537080	     81.71573393	     89.95437384	      0.00000000	      0.00000000
